<?xml version="1.0" encoding="utf-8"?>
<!-- Generator: Adobe Illustrator 23.0.1, SVG Export Plug-In . SVG Version: 6.00 Build 0)  -->
<svg version="1.1" xmlns="http://www.w3.org/2000/svg" xmlns:xlink="http://www.w3.org/1999/xlink" x="0px" y="0px"
	 viewBox="0 0 31.5 31.5" style="enable-background:new 0 0 31.5 31.5;" xml:space="preserve">
<style type="text/css">
	.st0{display:none;}
	.st1{display:inline;}
	.st2{fill:#FFFFFF;}
</style>
<g id="Capa_1" class="st0">
	<g class="st1">
		<g>
			<path class="st2" d="M17.1,21.2v3.1h-15V3h15v2h3V0H-0.8v31.5h20.9l-0.2-11.8l-2,1.1L17.1,21.2z M13.9,28.6H5.5v-2.1H14v2.1H13.9
				z"/>
			<polygon class="st2" points="13.3,5.5 13.3,17.4 17.8,17.4 15.3,21.7 22.7,17.4 31.5,17.4 31.5,5.5 			"/>
		</g>
	</g>
</g>
<g id="Layer_2">
	<g>
		<g id="XMLID_1_">
			<g>
				<path class="st2" d="M29,27c0.4,0.4,0.5,0.9,0.5,1.5c0,0.8-0.3,1.5-0.8,2.1c-0.6,0.5-1.2,0.8-1.9,0.8c-0.8,0-1.6-0.4-2.2-1.1
					l-8.8-10.6L6.9,30.3c-0.6,0.8-1.3,1.1-2.2,1.1c-0.8,0-1.4-0.3-2-0.8c-0.5-0.5-0.8-1.2-0.8-2c0-0.7,0.2-1.3,0.5-1.7l9.8-11.7
					L3.2,4.5C2.8,4,2.6,3.5,2.6,2.9c0-0.7,0.3-1.4,0.8-1.9c0.5-0.6,1.2-0.9,2-0.9c0.9,0,1.6,0.4,2.2,1l8.2,9.9l8.5-10
					c0.5-0.6,1.2-0.9,1.9-0.9c0.7,0,1.3,0.3,1.9,0.7c0.6,0.5,0.8,1.1,0.8,1.9c0,0.7-0.1,1.2-0.4,1.5l-9.2,11.1L29,27z"/>
			</g>
			<g>
			</g>
		</g>
	</g>
</g>
</svg>
